<svg width="1600" height="1000" viewBox="0 0 1600 1000" fill="none" xmlns="http://www.w3.org/2000/svg">
  <defs>
    <linearGradient id="bg" x1="0" y1="0" x2="0" y2="1">
      <stop offset="0" stop-color="#2A1353"/>
      <stop offset="1" stop-color="#B03BA4"/>
    </linearGradient>
    <radialGradient id="lightPink" cx="0" cy="0" r="1" gradientUnits="userSpaceOnUse" gradientTransform="translate(280 180) rotate(40) scale(380 280)">
      <stop stop-color="#FFB2E9" stop-opacity="0.9"/>
      <stop offset="1" stop-color="#FFB2E9" stop-opacity="0"/>
    </radialGradient>
    <radialGradient id="lightBlue" cx="0" cy="0" r="1" gradientUnits="userSpaceOnUse" gradientTransform="translate(1280 220) rotate(30) scale(420 300)">
      <stop stop-color="#8FD3FF" stop-opacity="0.8"/>
      <stop offset="1" stop-color="#8FD3FF" stop-opacity="0"/>
    </radialGradient>
    <radialGradient id="lightGold" cx="0" cy="0" r="1" gradientUnits="userSpaceOnUse" gradientTransform="translate(820 90) rotate(0) scale(300 200)">
      <stop stop-color="#FFE498" stop-opacity="0.7"/>
      <stop offset="1" stop-color="#FFE498" stop-opacity="0"/>
    </radialGradient>
  </defs>

  <rect width="1600" height="1000" fill="url(#bg)"/>
  <ellipse cx="280" cy="180" rx="420" ry="310" fill="url(#lightPink)"/>
  <ellipse cx="1280" cy="220" rx="450" ry="330" fill="url(#lightBlue)"/>
  <ellipse cx="820" cy="90" rx="320" ry="220" fill="url(#lightGold)"/>

  <rect y="720" width="1600" height="280" fill="#190B35" fill-opacity="0.9"/>

  <g opacity="0.5" stroke="#ffffff" stroke-width="2">
    <line x1="130" y1="250" x2="160" y2="250"/><line x1="145" y1="235" x2="145" y2="265"/>
    <line x1="360" y1="340" x2="390" y2="340"/><line x1="375" y1="325" x2="375" y2="355"/>
    <line x1="1120" y1="290" x2="1150" y2="290"/><line x1="1135" y1="275" x2="1135" y2="305"/>
    <line x1="1420" y1="250" x2="1450" y2="250"/><line x1="1435" y1="235" x2="1435" y2="265"/>
  </g>

  <g fill="#120726">
    <circle cx="800" cy="500" r="72"/>
    <polygon points="720,560 880,560 960,860 640,860"/>
    <rect x="630" y="600" width="95" height="56"/>
    <rect x="875" y="600" width="95" height="56"/>
  </g>

  <text x="70" y="930" font-family="sans-serif" font-size="56" fill="#FFFFFF" fill-opacity="0.8">Idol Audition Visual Asset</text>
</svg>
